<svg id="Ebene_1" data-name="Ebene 1" xmlns="http://www.w3.org/2000/svg" xmlns:xlink="http://www.w3.org/1999/xlink" viewBox="0 0 528.39 235.85"><defs><style>.cls-1{fill:#1f5795;}.cls-2{fill:#a8232d;}.cls-3{fill:#1f5796;}.cls-4{fill:#5574bb;}.cls-5{fill:url(#Unbenannter_Verlauf_16);}.cls-6{fill:url(#Unbenannter_Verlauf_16-2);}.cls-7{fill:url(#Unbenannter_Verlauf_16-3);}.cls-8{fill:url(#Unbenannter_Verlauf_16-4);}.cls-9{fill:url(#Unbenannter_Verlauf_16-5);}.cls-10{fill:url(#Unbenannter_Verlauf_16-6);}.cls-11{fill:url(#Unbenannter_Verlauf_21);}</style><linearGradient id="Unbenannter_Verlauf_16" x1="81.93" y1="167.03" x2="81.93" y2="123.48" gradientUnits="userSpaceOnUse"><stop offset="0" stop-color="#5574bb"/><stop offset="0.53" stop-color="#7bace0"/><stop offset="1" stop-color="#5574bb"/></linearGradient><linearGradient id="Unbenannter_Verlauf_16-2" x1="159.85" y1="166.63" x2="159.85" y2="124" xlink:href="#Unbenannter_Verlauf_16"/><linearGradient id="Unbenannter_Verlauf_16-3" x1="224.84" y1="166.56" x2="224.84" y2="123.99" xlink:href="#Unbenannter_Verlauf_16"/><linearGradient id="Unbenannter_Verlauf_16-4" x1="303.62" y1="166.66" x2="303.62" y2="123.86" xlink:href="#Unbenannter_Verlauf_16"/><linearGradient id="Unbenannter_Verlauf_16-5" x1="376.53" y1="166.61" x2="376.53" y2="123.94" xlink:href="#Unbenannter_Verlauf_16"/><linearGradient id="Unbenannter_Verlauf_16-6" x1="447.27" y1="167.72" x2="447.27" y2="122.82" xlink:href="#Unbenannter_Verlauf_16"/><linearGradient id="Unbenannter_Verlauf_21" x1="258.23" y1="-10.41" x2="359.68" y2="165.29" xlink:href="#Unbenannter_Verlauf_16"/></defs><title>REIWAG_Logo_4c</title><path class="cls-1" d="M45.41,127v-3.47l19.64,0V128H63.12ZM67,161.57l17.71,1v3.47L45.41,166V162.5l17.71-.93Zm-12.17-18c0-6.67,0-13.39-.36-20.06l20.86.05c-.36,6.58-.36,13.2-.36,20.23v2c0,6.89,0,13.61.36,20.28l-20.86,0c.36-6.53.36-13.26.36-20.05Zm10.42-.68,14.37,0c12.12,0,15.83-3.72,15.83-7.88,0-5.2-5.32-7.72-15.28-7.74l-15.09,0v-3.72l20.06,0c19.19,0,29.82,4.07,29.82,10.79,0,4.93-6.94,10-28.56,10.57l.1-.66c19.26.35,24.1,3.71,26.25,10.66l3.25,10-10-3.35,18.29,1.09v3.47a83.87,83.87,0,0,1-13.36.9c-10.39,0-16.5-1.62-17.7-6.66l-2.27-7.51c-1.21-4.36-4.23-6.34-11.53-6.36l-14.15,0Z"/><path class="cls-1" d="M130.27,127.47V124l19.44,0v4.44H147.8Zm19.44,34.62v4.45l-19.44,0V163l17.53-.93Zm-10.15-18c0-6.66,0-13.39-.36-20l21,0c-.36,6.53-.36,13.26-.36,20.05v2.13c0,6.93,0,13.66.36,20.32l-21,0c.36-6.54.36-13.26.36-20.05Zm39.6-20,8.74,3.67-38.19-.08V124l42.25.08.84,11.15-10.07,0Zm-2.85,22.46-26.6-.05v-3.82l26.6.06Zm18.91,8.93-.85,11.14-44.66-.09v-3.61l40.61.08-8.75,3.59,3.57-11.13Zm-22.6-11.64,1.81-6.19h7V151.6h-7l-1.81-6.53Z"/><path class="cls-1" d="M204.18,127.46V124l47.11.07v3.48l-21.62.93h-4.29Zm25.49,34.62,21.62,1v3.47l-47.11-.08V163l21.2-.93Zm-14.25-18c0-6.67,0-13.39-.44-20.06l25.4,0c-.43,6.53-.43,13.26-.43,20v2.35c0,6.71,0,13.43.43,20.1L215,166.5c.44-6.53.44-13.26.44-20.05Z"/><path class="cls-1" d="M272,128.34l-14.1-1v-3.47l31.07.07v3.48l-13.6.94ZM305.78,124,316,124l14.87,33.71L325,164.56l17.82-40.49h6.38l-19.66,42.58-9.79,0-15.82-33,4.29-2.09-16.51,35-9.75,0-19.74-42.67,17.76,0,13.31,33.71-6.12,6.85Zm3.07,4.45-12.23-1V124l30,.08v3.47l-12.35.94Zm34.43.08-9.35-1V124l21.16.06v3.47l-9.15,1Z"/><path class="cls-1" d="M341.06,163l12.09-.94h2.09l11.14,1v3.48l-25.32-.06Zm33.4-39,12.13,0L413,166.6l-20.08,0-20.06-34.77,4.4-3.26-22.44,37.95h-7Zm-12.65,26.44,31.72.07,2.65,3.77-36.33-.07Zm19.76,12.82,13.27-.94,7.86,0,15.08,1v3.33l-36.21-.07Z"/><path class="cls-1" d="M479.75,164a80.14,80.14,0,0,1-25.83,3.71c-23.47-.05-39.47-8.51-39.47-22.63,0-13.61,15-22.33,40.83-22.27a79.41,79.41,0,0,1,22.1,3l.46,10.08-8.85,0-4-10.28,7.89.94V130a36.3,36.3,0,0,0-15.37-3.47c-12.34,0-22.86,5.79-22.86,18.65s10.07,18.9,22.67,18.93c4.78,0,8-.73,12.94-2.25L461.59,166V161c0-5.24-.12-10.15-.34-15.44l18.85,0c-.23,5.18-.35,10.3-.35,15.67Zm-28.64-15v-3.47l34.76.07v3.48l-13.37,1-7.47,0Z"/><path class="cls-2" d="M96.05,55.54c17.79,8.9,66.37,41.4,212.54,46.17,62.1,2.78,119.38,3,167.92,2v-1.1s-22.1.73-52,.55c-14.42-.09-35.32-.4-51.87-.8-23.62-.57-42.13-1.32-62.11-2.26C184.71,93.9,126.69,71,96.05,55.54Z"/><path class="cls-3" d="M269.78,44.16c-159.58,6.17-41.89,37.26,92.52,48.9a1071.74,1071.74,0,0,0,114.2,3.8,3.71,3.71,0,0,1-.05.48c-119.54,4.72-323-17.71-329.4-37.07-4-14.84,77.59-18.27,122.15-17.36"/><path class="cls-4" d="M52.41,193.09v-9.8h7v1.26h-5.6v3h4.28v1.27H53.85v4.27Z"/><path class="cls-4" d="M79,191.2l-1,1.89H76.41l5.16-9.91,4.89,9.91H84.92L84,191.2Zm2.57-5L79.59,190h3.79Z"/><path class="cls-4" d="M110.08,193.18a5.87,5.87,0,0,1-2.79-.67,5.23,5.23,0,0,1-2-1.82,4.61,4.61,0,0,1,0-5,5.33,5.33,0,0,1,2-1.83,6,6,0,0,1,2.79-.67,6.18,6.18,0,0,1,2.26.43,5.37,5.37,0,0,1,1.86,1.22l-1,.82a4.19,4.19,0,0,0-1.39-.89,4.41,4.41,0,0,0-1.68-.33,4.36,4.36,0,0,0-2.08.51,3.92,3.92,0,0,0-1.51,1.37,3.42,3.42,0,0,0,0,3.75,4,4,0,0,0,1.51,1.37,4.35,4.35,0,0,0,2.08.5,4.59,4.59,0,0,0,1.8-.36,4,4,0,0,0,1.44-1l1.1.79a5.26,5.26,0,0,1-1.93,1.38A6.1,6.1,0,0,1,110.08,193.18Z"/><path class="cls-4" d="M133.86,193.09v-9.8h1.42v9.8Z"/><path class="cls-4" d="M155.44,193.09v-9.8h1.44v8.55h5.6v1.25Z"/><path class="cls-4" d="M182.3,193.09v-9.8h1.42v9.8Z"/><path class="cls-4" d="M212,183.29v1.26h-3.74v8.54h-1.44v-8.54h-3.73v-1.26Z"/><path class="cls-4" d="M235.84,188.41l3.6-5.12h1.69l-4.6,6.45v3.35h-1.4v-3.35l-4.62-6.45h1.67Z"/><path class="cls-4" d="M289.78,189.05a2.22,2.22,0,0,1,.47,1.35,2.11,2.11,0,0,1-.33,1.12,3,3,0,0,1-.93.93,4.38,4.38,0,0,1-1.28.57,5.71,5.71,0,0,1-1.5.19,5,5,0,0,1-2.81-.76,2.73,2.73,0,0,1-1.15-1.39l1.32-.66a1.08,1.08,0,0,0,.37.77,2.61,2.61,0,0,0,1,.58,4.13,4.13,0,0,0,2.6,0,2.61,2.61,0,0,0,1-.58,1.08,1.08,0,0,0,.35-.77,1.05,1.05,0,0,0-.25-.67,1.92,1.92,0,0,0-.73-.55,6.34,6.34,0,0,0-1.74-.36,6.33,6.33,0,0,1-2.1-.44,3.32,3.32,0,0,1-1.37-1,2.22,2.22,0,0,1-.49-1.38,2.09,2.09,0,0,1,.33-1.12,3,3,0,0,1,.92-.93,5.08,5.08,0,0,1,2.81-.77,5.58,5.58,0,0,1,1.49.2A4.69,4.69,0,0,1,289,184a2.91,2.91,0,0,1,1.16,1.39l-1.32.66a1.09,1.09,0,0,0-.36-.77,2.47,2.47,0,0,0-1-.57,3.88,3.88,0,0,0-1.29-.21,4.06,4.06,0,0,0-1.32.21,2.54,2.54,0,0,0-1,.56,1,1,0,0,0-.05,1.5,1.9,1.9,0,0,0,.76.53,3.3,3.3,0,0,0,.93.23l.72.1c.47,0,.88.11,1.24.18a4.5,4.5,0,0,1,1,.32A3,3,0,0,1,289.78,189.05Z"/><path class="cls-4" d="M309.76,193.09v-9.8h7v1.26h-5.63v3h4.31v1.27h-4.31v3h5.63v1.25Z"/><path class="cls-4" d="M344.18,193.09H342.4l-4.18-5.25h1.59a7,7,0,0,0,1.12-.08,4.56,4.56,0,0,0,.68-.15,1.77,1.77,0,0,0,.83-.62,1.4,1.4,0,0,0,.3-.81,1.29,1.29,0,0,0-.29-.79,1.9,1.9,0,0,0-.83-.6,3,3,0,0,0-1.25-.24h-2.55l0,8.54h-1.44v-9.8h4a4.79,4.79,0,0,1,1.49.22,4.07,4.07,0,0,1,1.22.65,3.05,3.05,0,0,1,.79.94,2.33,2.33,0,0,1,.27,1.08,2.37,2.37,0,0,1-.61,1.6,3.33,3.33,0,0,1-.61.56,4.71,4.71,0,0,1-.76.42A3.61,3.61,0,0,1,341,189Z"/><path class="cls-4" d="M367.91,190.23l3.49-6.94H373l-5,10.05-5-10.05h1.54Z"/><path class="cls-4" d="M392.28,193.09v-9.8h1.43v9.8Z"/><path class="cls-4" d="M418.77,193.18a5.86,5.86,0,0,1-2.78-.67,5.23,5.23,0,0,1-2-1.82,4.61,4.61,0,0,1,0-5,5.33,5.33,0,0,1,2-1.83,6,6,0,0,1,2.78-.67,6.23,6.23,0,0,1,2.27.43,5.37,5.37,0,0,1,1.86,1.22l-1,.82a4.19,4.19,0,0,0-1.39-.89,4.43,4.43,0,0,0-1.69-.33,4.35,4.35,0,0,0-2.07.51,3.85,3.85,0,0,0-1.51,1.37,3.42,3.42,0,0,0,0,3.75,3.92,3.92,0,0,0,1.51,1.37,4.34,4.34,0,0,0,2.07.5,4.52,4.52,0,0,0,1.8-.36,4,4,0,0,0,1.45-1l1.1.79a5.26,5.26,0,0,1-1.93,1.38A6.11,6.11,0,0,1,418.77,193.18Z"/><path class="cls-4" d="M442.35,193.09v-9.8h7v1.26h-5.63v3h4.31v1.27h-4.31v3h5.63v1.25Z"/><path class="cls-4" d="M476,189.05a2.22,2.22,0,0,1,.47,1.35,2.11,2.11,0,0,1-.33,1.12,3,3,0,0,1-.93.93A4.38,4.38,0,0,1,474,193a5.71,5.71,0,0,1-1.5.19,5,5,0,0,1-2.81-.76,2.78,2.78,0,0,1-1.15-1.39l1.32-.66a1.08,1.08,0,0,0,.37.77,2.61,2.61,0,0,0,1,.58,4,4,0,0,0,1.3.21,3.94,3.94,0,0,0,1.3-.21,2.61,2.61,0,0,0,1-.58,1.08,1.08,0,0,0,.35-.77,1.05,1.05,0,0,0-.25-.67,1.92,1.92,0,0,0-.73-.55,6.25,6.25,0,0,0-1.74-.36,6.39,6.39,0,0,1-2.1-.44,3.32,3.32,0,0,1-1.37-1,2.28,2.28,0,0,1-.49-1.38,2.09,2.09,0,0,1,.33-1.12,3,3,0,0,1,.92-.93,5.08,5.08,0,0,1,2.81-.77,5.58,5.58,0,0,1,1.49.2,4.69,4.69,0,0,1,1.29.57,2.91,2.91,0,0,1,1.16,1.39l-1.32.66a1.09,1.09,0,0,0-.36-.77,2.5,2.5,0,0,0-1-.57,3.94,3.94,0,0,0-1.3-.21,4.06,4.06,0,0,0-1.32.21,2.54,2.54,0,0,0-1,.56,1,1,0,0,0-.05,1.5,1.9,1.9,0,0,0,.76.53,3.3,3.3,0,0,0,.93.23l.73.1q.69.07,1.23.18a4.5,4.5,0,0,1,1,.32A3,3,0,0,1,476,189.05Z"/><path class="cls-4" d="M418,85.81a.36.36,0,0,1-.1.11.24.24,0,0,1-.15,0,.43.43,0,0,1-.21-.08,2.7,2.7,0,0,0-.32-.19,2.07,2.07,0,0,0-1.1-.27,2,2,0,0,0-.63.09,1.17,1.17,0,0,0-.46.23,1,1,0,0,0-.37.78.75.75,0,0,0,.16.5,1.33,1.33,0,0,0,.43.33,4.17,4.17,0,0,0,.6.24l.7.21c.23.07.46.16.69.25a2.4,2.4,0,0,1,.61.34,1.6,1.6,0,0,1,.42.51,1.53,1.53,0,0,1,.17.74,2.2,2.2,0,0,1-.18.88,2.11,2.11,0,0,1-.51.71,2.49,2.49,0,0,1-.83.47,3.29,3.29,0,0,1-1.12.18,3.92,3.92,0,0,1-1.4-.25,3.32,3.32,0,0,1-1.07-.68l.3-.46.11-.09a.32.32,0,0,1,.14,0,.43.43,0,0,1,.27.11l.37.24A3.44,3.44,0,0,0,415,91a2.46,2.46,0,0,0,.77.11,2.07,2.07,0,0,0,.68-.1,1.58,1.58,0,0,0,.5-.26,1.17,1.17,0,0,0,.32-.41,1.29,1.29,0,0,0,.11-.53.84.84,0,0,0-.17-.53,1.31,1.31,0,0,0-.42-.34,4.17,4.17,0,0,0-.6-.24l-.7-.19c-.23-.07-.47-.15-.69-.24a2.18,2.18,0,0,1-.6-.34,1.63,1.63,0,0,1-.43-.54,1.68,1.68,0,0,1-.16-.79,1.64,1.64,0,0,1,.16-.72,1.8,1.8,0,0,1,.47-.63,2.43,2.43,0,0,1,.76-.43,3.06,3.06,0,0,1,1-.17,3.84,3.84,0,0,1,1.21.19,2.89,2.89,0,0,1,.95.55Z"/><path class="cls-4" d="M421.56,91.8h-1.07V84.7h1.07Z"/><path class="cls-4" d="M425,84.73a.64.64,0,0,1,.16.14l4.57,5.34,0-.25V84.7h.93v7.1h-.54a.65.65,0,0,1-.21,0,.5.5,0,0,1-.16-.14l-4.56-5.34c0,.08,0,.17,0,.24a1.77,1.77,0,0,1,0,.22V91.8h-.94V84.7h.55A.51.51,0,0,1,425,84.73Z"/><path class="cls-4" d="M438.64,90.33a.21.21,0,0,1,.16.07l.42.41a3.29,3.29,0,0,1-1.17.78,4.38,4.38,0,0,1-1.67.29,4.18,4.18,0,0,1-1.54-.27,3.43,3.43,0,0,1-1.19-.74,3.23,3.23,0,0,1-.75-1.15,3.85,3.85,0,0,1-.27-1.47,3.74,3.74,0,0,1,.28-1.47,3.5,3.5,0,0,1,.82-1.15,3.46,3.46,0,0,1,1.25-.74,4.57,4.57,0,0,1,1.61-.27,4,4,0,0,1,1.49.25,3.87,3.87,0,0,1,1.12.65l-.34.44a.38.38,0,0,1-.09.09.26.26,0,0,1-.14,0,.3.3,0,0,1-.15,0l-.2-.11a1.83,1.83,0,0,0-.25-.15,1.5,1.5,0,0,0-.36-.15,2.47,2.47,0,0,0-.47-.12,3.79,3.79,0,0,0-.62,0,3.32,3.32,0,0,0-1.16.19,2.59,2.59,0,0,0-.9.56,2.35,2.35,0,0,0-.59.88,3,3,0,0,0-.22,1.16,3.1,3.1,0,0,0,.22,1.18,2.57,2.57,0,0,0,.57.88,2.48,2.48,0,0,0,.87.55,2.92,2.92,0,0,0,1.08.19,4.09,4.09,0,0,0,.63,0,2.08,2.08,0,0,0,.52-.12,1.82,1.82,0,0,0,.45-.2,4.29,4.29,0,0,0,.41-.28A.29.29,0,0,1,438.64,90.33Z"/><path class="cls-4" d="M446,84.7v.78h-3.78v2.36h3.06v.75h-3.06V91H446v.79h-4.86V84.7Z"/><path class="cls-4" d="M451.41,91.12h1.69V86.29c0-.15,0-.3,0-.44l-1.41,1.08a.3.3,0,0,1-.11.06h-.1a.33.33,0,0,1-.15,0,.29.29,0,0,1-.1-.07l-.31-.39,2.34-1.82h.8v6.43h1.55v.68h-4.22Z"/><path class="cls-4" d="M459.78,88.89a2.55,2.55,0,0,1-.84-.14,2.23,2.23,0,0,1-.71-.39,2,2,0,0,1-.48-.64,2.09,2.09,0,0,1,0-1.74,2.07,2.07,0,0,1,.54-.71,2.45,2.45,0,0,1,.82-.47,3,3,0,0,1,1.05-.18,3,3,0,0,1,1,.17,2.3,2.3,0,0,1,.79.47,2.05,2.05,0,0,1,.51.72,2.39,2.39,0,0,1,.18.94,2.78,2.78,0,0,1-.06.58,3.35,3.35,0,0,1-.19.53,4.63,4.63,0,0,1-.29.53c-.11.17-.24.35-.38.53l-1.92,2.5a.53.53,0,0,1-.2.15.73.73,0,0,1-.3.06h-.91l2.4-2.83.23-.27.19-.26a2,2,0,0,1-.68.33A2.63,2.63,0,0,1,459.78,88.89Zm2-2.08a1.46,1.46,0,0,0-.12-.6,1.39,1.39,0,0,0-.33-.46,1.59,1.59,0,0,0-.49-.29,1.91,1.91,0,0,0-.64-.1,2,2,0,0,0-.66.11,1.58,1.58,0,0,0-.51.29,1.45,1.45,0,0,0-.33.45,1.4,1.4,0,0,0-.12.58,1.64,1.64,0,0,0,.11.6,1.25,1.25,0,0,0,.31.45,1.29,1.29,0,0,0,.49.27,1.87,1.87,0,0,0,.64.1,2,2,0,0,0,.71-.12,1.62,1.62,0,0,0,.51-.31,1.34,1.34,0,0,0,.32-.44A1.4,1.4,0,0,0,461.75,86.81Z"/><path class="cls-4" d="M469.74,88.25a5.14,5.14,0,0,1-.22,1.61,3.2,3.2,0,0,1-.61,1.13,2.34,2.34,0,0,1-.91.66,2.85,2.85,0,0,1-1.13.22,2.8,2.8,0,0,1-1.12-.22,2.34,2.34,0,0,1-.91-.66,3.36,3.36,0,0,1-.6-1.13,6,6,0,0,1,0-3.22,3.36,3.36,0,0,1,.6-1.13,2.48,2.48,0,0,1,.91-.67,3,3,0,0,1,1.12-.22,3,3,0,0,1,1.13.22,2.48,2.48,0,0,1,.91.67,3.2,3.2,0,0,1,.61,1.13A5.14,5.14,0,0,1,469.74,88.25Zm-1,0a5.27,5.27,0,0,0-.15-1.36,2.54,2.54,0,0,0-.41-.89,1.41,1.41,0,0,0-.59-.48,1.69,1.69,0,0,0-1.39,0,1.41,1.41,0,0,0-.59.48,2.54,2.54,0,0,0-.41.89,5.27,5.27,0,0,0-.15,1.36,5.22,5.22,0,0,0,.15,1.36,2.63,2.63,0,0,0,.41.89,1.5,1.5,0,0,0,.59.48,1.69,1.69,0,0,0,1.39,0,1.5,1.5,0,0,0,.59-.48,2.63,2.63,0,0,0,.41-.89A5.22,5.22,0,0,0,468.72,88.25Z"/><path class="cls-4" d="M474,84.62a3.35,3.35,0,0,1,.92.13,2.18,2.18,0,0,1,.73.37,1.74,1.74,0,0,1,.48.57,1.72,1.72,0,0,1,.17.75,1.61,1.61,0,0,1-.1.6,1.37,1.37,0,0,1-.27.47,1.85,1.85,0,0,1-.43.34,2.94,2.94,0,0,1-.57.22,2.25,2.25,0,0,1,1.16.61,1.55,1.55,0,0,1,.38,1.08,1.81,1.81,0,0,1-.2.88,2.13,2.13,0,0,1-.56.67,2.76,2.76,0,0,1-.84.42,3.71,3.71,0,0,1-2.09,0,2.2,2.2,0,0,1-.75-.38,2.05,2.05,0,0,1-.51-.59,5,5,0,0,1-.34-.74l.42-.15a.68.68,0,0,1,.23-.05.59.59,0,0,1,.2,0,.27.27,0,0,1,.13.13l0,.05s0,0,0,0,.12.21.19.33a1.33,1.33,0,0,0,.3.34,1.54,1.54,0,0,0,.46.26,1.78,1.78,0,0,0,.69.11,1.94,1.94,0,0,0,.72-.12,1.56,1.56,0,0,0,.52-.31,1.27,1.27,0,0,0,.31-.43,1.19,1.19,0,0,0,.11-.47,1.47,1.47,0,0,0-.09-.53.94.94,0,0,0-.31-.41,1.65,1.65,0,0,0-.61-.27,4.09,4.09,0,0,0-1-.1v-.64a3.42,3.42,0,0,0,.85-.1,1.64,1.64,0,0,0,.58-.26.89.89,0,0,0,.33-.39,1.18,1.18,0,0,0,.1-.5,1.16,1.16,0,0,0-.11-.54,1,1,0,0,0-.29-.37,1.07,1.07,0,0,0-.44-.22,2,2,0,0,0-.55-.08,1.87,1.87,0,0,0-.55.08,1.57,1.57,0,0,0-.45.22,1.33,1.33,0,0,0-.33.34,1.62,1.62,0,0,0-.2.42.44.44,0,0,1-.13.21.39.39,0,0,1-.23.06H472l-.51-.08a2.57,2.57,0,0,1,.29-.86,2.37,2.37,0,0,1,.56-.62,2.59,2.59,0,0,1,.78-.39A3.5,3.5,0,0,1,474,84.62Z"/><path class="cls-5" d="M42.52,127v-3.47l19.63,0V128H60.23Zm21.56,34.62,17.71,1v3.47L42.52,166V162.5l17.71-.93Zm-12.17-18c0-6.67,0-13.39-.37-20.06l20.87.05c-.37,6.58-.37,13.2-.37,20.23v2c0,6.89,0,13.61.37,20.28l-20.87,0c.37-6.53.37-13.26.37-20.05Zm10.42-.68,14.37,0c12.12,0,15.82-3.72,15.82-7.88,0-5.2-5.31-7.72-15.27-7.74l-15.1,0v-3.72l20.06,0c19.2,0,29.82,4.07,29.82,10.79,0,4.93-6.94,10-28.55,10.57l.1-.66c19.26.35,24.1,3.71,26.25,10.66l3.25,10-10-3.35,18.28,1.09v3.47A83.72,83.72,0,0,1,108,167c-10.38,0-16.49-1.62-17.69-6.66L88,152.86c-1.21-4.36-4.23-6.34-11.54-6.36l-14.14,0Z"/><path class="cls-6" d="M127.37,127.47V124l19.44,0v4.44h-1.9Zm19.44,34.62v4.45l-19.44,0V163l17.54-.93Zm-10.14-18c0-6.66,0-13.39-.36-20l21,0c-.37,6.53-.37,13.26-.37,20.05v2.13c0,6.93,0,13.66.37,20.32l-21,0c.36-6.54.36-13.26.36-20.05Zm39.59-20,8.75,3.67-38.2-.08V124l42.25.08.85,11.15-10.08,0Zm-2.85,22.46-26.6-.05v-3.82l26.6.06Zm18.91,8.93-.84,11.14-44.67-.09v-3.61l40.61.08-8.74,3.59,3.57-11.13Zm-22.6-11.64,1.81-6.19h7V151.6h-7l-1.81-6.53Z"/><path class="cls-7" d="M201.29,127.46V124l47.11.07v3.48l-21.62.93h-4.29Zm25.49,34.62,21.62,1v3.47l-47.11-.08V163l21.2-.93Zm-14.25-18c0-6.67,0-13.39-.44-20.06l25.4,0c-.44,6.53-.44,13.26-.44,20v2.35c0,6.71,0,13.43.44,20.1l-25.4-.05c.44-6.53.44-13.26.44-20.05Z"/><path class="cls-8" d="M269.13,128.34l-14.1-1v-3.47l31.08.07v3.48l-13.6.94ZM302.89,124l10.21,0L328,157.71l-5.83,6.85L340,124.07h6.38l-19.67,42.58-9.78,0-15.82-33,4.28-2.09-16.5,35-9.75,0-19.74-42.67,17.76,0,13.31,33.71-6.13,6.85Zm3.07,4.45-12.24-1V124l30,.08v3.47l-12.36.94Zm34.43.08-9.35-1V124l21.16.06v3.47l-9.16,1Z"/><path class="cls-9" d="M338.16,163l12.09-.94h2.1l11.14,1v3.48l-25.33-.06Zm33.4-39,12.14,0,26.43,42.64-20.08,0L370,131.79l4.4-3.26L352,166.48h-7Zm-12.64,26.44,31.72.07,2.64,3.77L357,154.15Zm19.75,12.82,13.28-.94,7.86,0,15.08,1v3.33l-36.22-.07Z"/><path class="cls-10" d="M476.86,164A80.18,80.18,0,0,1,451,167.72c-23.47-.05-39.47-8.51-39.47-22.63,0-13.61,15-22.33,40.83-22.27a79.41,79.41,0,0,1,22.1,3l.46,10.08-8.85,0-4-10.28,7.9.94V130a36.36,36.36,0,0,0-15.37-3.47c-12.35,0-22.86,5.79-22.86,18.65s10.06,18.9,22.67,18.93c4.77,0,8-.73,12.94-2.25L458.7,166V161c0-5.24-.12-10.15-.35-15.44l18.85,0c-.23,5.18-.34,10.3-.34,15.67Zm-28.64-15v-3.47l34.75.07v3.48l-13.36,1-7.47,0Z"/><path class="cls-11" d="M286.16,43.7C93.19,48,218.45,84,360.81,93.76c37.25,2.55,77,3.89,110.48,3.12l5.22-.16v1.12l-5.18.14c-57.23,1.74-139.95-1.56-206.94-7.92-67.2-6.38-118.5-20.12-121.68-29.79C137.45,42.46,256.34,40.71,286.16,43.7Z"/></svg>